PathFileType	4	(X/Y/Z)	C:\Users\Basilio\Documents\Thesis Gigler\squatting_fais\c3dfiles\076\SLS_front_pre3\markers_experimental.trc
DataRate	CameraRate	NumFrames	NumMarkers	Units	OrigDataRate	OrigDataStartFrame	OrigNumFrames
200.000000	200.000000	4	61	mm	200.000000	544	1453
Frame#	Time	FHD			LBHD			RBHD			C7			T10			CLAV			LSHO			LUUPA			LMUPA			LDUPA			LLEP			LMEP			LRAD			LUL			LRFIN			RSHO			RUPA1			RMUPA			RDUPA			RLEP			RMEP			RRAD			RUL			RUFIN			LASI			RASI			USACR			LSACR			RSACR			LTHI1			LTHI2			LTHI4			LLFC			LMFC			LTIB1			LTIB2			LTIB3			LTIB4			LLMAL			LMMAL			LHEE			LMT1			LMT2			LMT5			RTHI			RTHI2			RTHI3			RTHI4			RLFC			RMFC			RTIB1			RTIB2			RTIB3			RTIB4			RLMAL			RMMAL			RHEE			RMT1			RMT2			RMT5			LTHI3			
		X1	Y1	Z1	X2	Y2	Z2	X3	Y3	Z3	X4	Y4	Z4	X5	Y5	Z5	X6	Y6	Z6	X7	Y7	Z7	X8	Y8	Z8	X9	Y9	Z9	X10	Y10	Z10	X11	Y11	Z11	X12	Y12	Z12	X13	Y13	Z13	X14	Y14	Z14	X15	Y15	Z15	X16	Y16	Z16	X17	Y17	Z17	X18	Y18	Z18	X19	Y19	Z19	X20	Y20	Z20	X21	Y21	Z21	X22	Y22	Z22	X23	Y23	Z23	X24	Y24	Z24	X25	Y25	Z25	X26	Y26	Z26	X27	Y27	Z27	X28	Y28	Z28	X29	Y29	Z29	X30	Y30	Z30	X31	Y31	Z31	X32	Y32	Z32	X33	Y33	Z33	X34	Y34	Z34	X35	Y35	Z35	X36	Y36	Z36	X37	Y37	Z37	X38	Y38	Z38	X39	Y39	Z39	X40	Y40	Z40	X41	Y41	Z41	X42	Y42	Z42	X43	Y43	Z43	X44	Y44	Z44	X45	Y45	Z45	X46	Y46	Z46	X47	Y47	Z47	X48	Y48	Z48	X49	Y49	Z49	X50	Y50	Z50	X51	Y51	Z51	X52	Y52	Z52	X53	Y53	Z53	X54	Y54	Z54	X55	Y55	Z55	X56	Y56	Z56	X57	Y57	Z57	X58	Y58	Z58	X59	Y59	Z59	X60	Y60	Z60	X61	Y61	Z61	

545	2.72	-248.9913177490235	1621.301025390625	-1007.25390625	-384.1929626464845	1549.763671875	-1107.862915039063	-375.0291137695313	1553.2822265625	-956.3448486328127	-430.2809143066407	1430.061157226563	-1032.092407226563	-480.9930725097657	1118.907104492188	-1045.081665039063	-301.7682800292969	1351.779174804688	-1033.888793945313	-351.7776184082032	1381.287353515625	-1196.653198242188	-211.8677825927735	1307.120971679688	-1283.232055664063	-174.2262268066407	1320.400756835938	-1253.443359375	-148.4388122558594	1290.119262695313	-1300.36083984375	-102.7009353637696	1262.256469726563	-1313.264892578125	-101.5290832519532	1202.759399414063	-1258.994873046875	147.1836242675782	1258.233276367188	-1272.395263671875	142.2271270751953	1251.1669921875	-1337.068115234375	231.5935974121094	1270.29541015625	-1283.889892578125	-352.2263183593751	1369.12890625	-876.9584960937502	-226.1236114501954	1276.309326171875	-788.9433593750002	-188.5541534423828	1304.693603515625	-803.3967895507815	-159.2241973876953	1255.61962890625	-781.203796386719	-93.07783508300783	1247.74169921875	-781.0686645507815	-95.10900878906251	1202.556396484375	-842.0444946289065	152.2195739746094	1225.226196289063	-822.008972167969	139.7442321777344	1216.930419921875	-757.0892333984376	227.1131591796876	1233.933471679688	-803.1475219726565	-313.6555480957032	936.8130493164065	-1132.36376953125	-337.0657348632813	944.0589599609377	-917.6089477539065	-491.4520263671876	1003.201416015625	-1039.495483398438	-496.9298400878907	973.6307373046877	-1066.869750976563	-503.4618530273439	973.4404907226565	-1010.544616699219	-362.9030761718751	772.5894775390627	-1195.505615234375	-319.0980529785157	699.9635009765626	-1184.093505859375	-339.0097656250001	644.3009033203126	-1167.099487304688	-308.0229187011719	490.8253479003907	-1128.261352539063	-293.0376281738282	500.6831665039064	-1010.669067382813	-291.0267944335938	352.7143249511719	-1038.578735351563	-310.2275695800782	292.5889892578126	-1101.287841796875	-285.4940185546876	298.1708068847657	-1060.225830078125	-313.6195983886719	228.8261718750001	-1022.624572753906	-380.9159851074219	107.7774200439453	-1068.997314453125	-358.7648010253907	121.1635818481446	-987.719909667969	-441.3753967285157	95.76243591308595	-1023.307373046875	-239.4928741455079	51.46437835693361	-1002.830261230469	-233.645980834961	50.71834564208986	-1041.871826171875	-257.6860656738282	44.81533813476563	-1091.77880859375	-304.3319702148438	711.3821411132814	-849.6126708984377	-241.2286376953126	688.8071289062501	-855.1070556640627	-216.2995605468751	710.7603149414064	-866.1529541015627	-217.8585968017579	610.3680419921876	-869.3874511718752	-186.3621368408203	559.1610107421876	-874.6917724609377	-165.7463684082032	565.6884765625001	-989.9409790039065	-78.63388061523439	467.8227539062501	-891.8143310546877	-92.94521331787111	362.7761230468751	-864.3770141601565	-53.10983276367189	386.1106262207032	-875.6826782226565	-16.19633674621582	354.9726257324219	-908.4202880859377	13.73745155334473	201.6825256347657	-873.7920532226565	20.53611373901368	227.6446990966797	-955.3702392578127	-16.6423511505127	146.9178314208985	-915.6045532226565	157.2477111816407	253.970199584961	-943.4959106445315	161.4430847167969	263.8025512695313	-899.8618164062502	151.1890411376953	232.5601196289063	-846.3010253906252	-271.6520690917969	711.8259277343751	-1172.113525390625	
546	2.725	-248.6415710449219	1620.635620117188	-1006.976501464844	-383.9818115234376	1548.335693359375	-1107.486206054688	-374.6716003417969	1552.605590820313	-956.0706176757815	-429.9333801269532	1429.453002929688	-1031.840576171875	-481.3191833496095	1118.466186523438	-1045.1484375	-301.5341796875001	1351.005615234375	-1033.837646484375	-351.6057128906251	1380.728759765625	-1196.526977539063	-211.7343292236329	1306.995239257813	-1283.181396484375	-174.0624389648438	1320.31103515625	-1253.435913085938	-148.4226531982422	1290.227661132813	-1300.496215820313	-102.3985900878907	1262.53271484375	-1313.523315429688	-101.2147903442383	1202.7685546875	-1259.040893554688	147.4481353759766	1258.791625976563	-1272.88525390625	142.521957397461	1252.109619140625	-1337.58203125	231.6472473144532	1271.148315429688	-1284.360473632813	-351.9885559082032	1368.440795898438	-876.872741699219	-225.8532104492188	1275.789428710938	-788.9042968750002	-188.3824768066407	1304.299072265625	-803.361267089844	-158.9738006591797	1255.2705078125	-781.1157836914065	-92.72727203369142	1247.533935546875	-781.0634765625002	-94.78223419189455	1202.402587890625	-842.0480957031252	152.5569152832032	1225.3759765625	-821.970397949219	140.1300354003907	1217.157104492188	-756.9908447265626	227.4188385009766	1234.270874023438	-803.1351318359377	-314.2611083984376	936.160095214844	-1132.241333007813	-337.9017639160157	943.3877563476565	-917.576599121094	-491.9940490722657	1002.758117675781	-1039.623291015625	-497.6303100585939	973.1589355468752	-1067.069213867188	-504.015106201172	972.876647949219	-1010.669006347656	-362.2195739746094	771.7827758789065	-1195.428466796875	-318.7963562011719	699.6995849609376	-1184.29150390625	-338.6483154296876	643.8696289062501	-1167.226196289063	-306.7634277343751	490.6079101562501	-1128.260620117188	-292.3799743652344	500.618133544922	-1010.686462402344	-290.1593933105469	352.3796997070313	-1038.569091796875	-309.6090698242188	292.1904907226563	-1101.198974609375	-284.7832336425782	297.8489074707032	-1060.207641601563	-313.1851501464844	228.6902770996094	-1022.487487792969	-380.7959594726563	107.8212509155274	-1068.935913085938	-358.7459106445313	121.1696395874024	-987.6067504882815	-441.2973022460939	95.77147674560548	-1023.292053222656	-239.5441894531251	51.44746017456056	-1002.756713867188	-233.6039733886719	50.81684875488283	-1041.761474609375	-257.6831665039063	44.93027496337891	-1091.6572265625	-304.7905578613282	710.9200439453126	-849.9075927734377	-241.5196380615235	688.5506591796876	-855.2393188476565	-216.6873931884766	710.5441894531251	-866.2830200195315	-217.9950103759766	610.3137207031251	-869.6978149414065	-186.2683715820313	559.1120605468751	-875.1246337890627	-165.7762298583985	565.7409057617189	-990.1665649414065	-78.3191604614258	468.1309204101564	-892.0914306640627	-92.2311477661133	363.0413818359376	-864.8720703125002	-52.56325531005861	386.2075805664064	-875.7984008789065	-15.87695217132569	355.3903198242188	-908.620544433594	15.24774932861328	202.3817596435547	-874.4694824218752	22.22972488403321	228.4002685546876	-955.7876586914065	-15.18481063842774	147.6238098144532	-916.3620605468752	158.4218444824219	255.5381622314454	-943.9109497070315	161.9773559570313	264.1605834960938	-900.3660278320315	152.4243469238282	233.4423522949219	-846.9187622070315	-271.3590087890626	711.6571044921876	-1172.025024414063	
547	2.73	-248.3560638427735	1619.826049804688	-1006.907287597656	-383.6679992675782	1547.52392578125	-1107.232666015625	-374.3744812011719	1551.950317382813	-955.9305419921877	-429.6574707031251	1428.664794921875	-1031.726440429688	-481.6336364746095	1118.122192382813	-1045.219360351563	-301.4155578613282	1350.31787109375	-1033.770629882813	-351.3552551269532	1380.22900390625	-1196.365478515625	-211.5568084716797	1306.882202148438	-1283.180297851563	-173.8405303955078	1320.196044921875	-1253.387573242188	-148.0792846679688	1290.281127929688	-1300.574584960938	-102.2473220825196	1262.743408203125	-1313.740478515625	-100.7462310791016	1202.96044921875	-1259.7607421875	147.7487335205078	1259.47900390625	-1273.337524414063	141.9293518066407	1252.855590820313	-1338.427124023438	231.732162475586	1271.922485351563	-1284.831176757813	-351.7310180664063	1367.639404296875	-876.7355957031252	-225.6098785400391	1275.352661132813	-788.814880371094	-188.2377471923828	1303.927856445313	-803.3355102539065	-158.7451934814453	1255.00830078125	-781.0992431640627	-92.47035980224611	1247.350219726563	-781.0296630859377	-94.4744110107422	1202.126342773438	-841.848815917969	152.8911895751953	1225.405395507813	-821.948425292969	140.4485473632813	1217.362548828125	-757.0362548828126	227.6330261230469	1234.475952148438	-803.0823974609377	-314.8257446289063	935.5826416015627	-1132.260131835938	-338.6663818359376	942.6263427734377	-917.4061279296877	-492.5961914062501	1002.22216796875	-1039.790283203125	-498.0581970214845	972.5035400390627	-1067.210205078125	-504.6684570312501	972.373962402344	-1010.861755371094	-362.3615417480469	771.1574707031252	-1195.51904296875	-318.4780883789063	699.1203002929689	-1184.291259765625	-337.9317321777344	643.2842407226564	-1167.361938476563	-305.8515625000001	490.3575134277345	-1128.169555664063	-291.4278869628907	500.3759765625001	-1010.713256835938	-289.1568298339844	352.3130493164063	-1038.284545898438	-308.6827697753907	291.9846496582032	-1101.12744140625	-283.9543151855469	297.5853881835938	-1060.062133789063	-312.6730346679688	228.5725555419922	-1022.399108886719	-380.7116699218751	107.8326034545899	-1068.904052734375	-358.6805419921876	121.186279296875	-987.5051269531252	-441.2938537597657	95.80837249755861	-1023.303283691406	-239.5299682617188	51.43584060668947	-1002.682373046875	-233.6129455566407	50.89427947998048	-1041.74462890625	-257.5493469238282	44.98473358154298	-1091.5859375	-305.1072082519532	710.5964965820314	-850.1296997070315	-241.7503662109376	688.3173828125001	-855.5017089843752	-217.0223236083985	710.3103637695314	-866.5351562500002	-218.0785369873047	610.0822753906251	-870.0100708007815	-186.2322845458985	559.0429687500001	-875.4732055664065	-166.9041900634766	565.9288940429689	-991.0241699218752	-77.94974517822267	468.4265136718751	-892.4874267578127	-91.5273895263672	363.2308349609376	-865.330505371094	-51.80049133300783	386.6985473632814	-876.6350097656252	-14.99406814575196	356.0870666503907	-909.1533203125002	16.61030197143555	202.9916229248047	-875.041198730469	23.63739776611328	229.1687469482422	-956.426452636719	-13.78587913513184	148.2013702392578	-917.0668945312502	159.5395812988282	256.5910644531251	-944.3367919921877	163.2928314208985	266.0917053222657	-900.8889770507815	153.7435607910157	234.4891967773438	-847.3540649414065	-271.2112731933594	711.5352172851564	-1171.997314453125	
548	2.735	-248.0198974609376	1619.060791015625	-1006.761474609375	-383.5230102539063	1546.908447265625	-1107.032836914063	-374.0124511718751	1551.147094726563	-955.6583251953127	-429.3921203613282	1427.983764648438	-1031.520263671875	-482.0231323242189	1117.627075195313	-1045.230712890625	-301.0700683593751	1349.408203125	-1033.45556640625	-351.1918945312501	1379.696899414063	-1196.174438476563	-211.4866943359376	1306.837280273438	-1283.140014648438	-173.8079071044922	1320.172119140625	-1253.426513671875	-148.0452117919922	1290.422241210938	-1300.729858398438	-101.1554031372071	1262.723266601563	-1313.544677734375	-100.4030990600586	1203.005981445313	-1260.024047851563	148.0649871826172	1259.97265625	-1273.64208984375	141.8564147949219	1253.39599609375	-1338.876220703125	231.9954833984376	1272.767822265625	-1285.375854492188	-351.5557250976563	1366.974975585938	-876.6355590820315	-225.4548950195313	1274.88916015625	-788.7991943359377	-188.0245056152344	1303.565063476563	-803.3167114257815	-158.4567565917969	1254.72314453125	-781.0943603515627	-92.12377929687501	1247.1748046875	-780.8823852539065	-94.13478851318361	1201.869384765625	-841.8662719726565	153.2097473144532	1225.565185546875	-822.0274047851565	140.7200317382813	1217.4833984375	-756.9598999023439	227.8647155761719	1234.658569335938	-803.0791015625002	-315.5376586914063	934.9336547851565	-1132.195190429688	-339.3066406250001	942.0566406250002	-917.3273925781252	-493.1698608398439	1001.69873046875	-1039.89990234375	-498.3608703613282	971.9749145507815	-1067.3310546875	-505.4059448242189	971.8365478515627	-1011.061279296875	-362.3954772949219	770.510437011719	-1195.56201171875	-318.0390625000001	698.7639160156251	-1184.283813476563	-337.1059570312501	642.7973022460939	-1167.379150390625	-304.0250244140626	490.0279846191407	-1128.03271484375	-290.2999572753907	500.2402954101564	-1010.758361816406	-288.1744995117188	352.1990661621094	-1038.09130859375	-307.6628417968751	291.6923522949219	-1100.887084960938	-283.1123046875001	297.3543090820313	-1059.80029296875	-312.1897277832032	228.5273742675782	-1022.252136230469	-380.5207214355469	107.8189315795899	-1068.847900390625	-358.6424255371094	121.1828918457032	-987.4226684570315	-441.3006591796876	95.80857086181642	-1023.309326171875	-239.487289428711	51.46961212158205	-1002.615844726563	-233.5271148681641	50.95026779174806	-1041.637084960938	-257.4689941406251	45.05387115478516	-1091.552856445313	-305.3880920410157	710.1577148437501	-850.3120117187502	-242.1352691650391	687.8836059570314	-855.809509277344	-217.4327392578126	710.0911254882814	-866.8491821289065	-218.1848144531251	609.8737792968751	-870.388122558594	-186.2740325927735	558.8942260742189	-875.7436523437502	-165.8855133056641	565.7807006835939	-990.9274902343752	-77.61785125732423	468.7247619628907	-893.0073242187502	-90.74604797363283	363.7046508789063	-865.8852539062502	-51.25657653808595	387.0654296875001	-876.771179199219	-14.21532058715821	356.6373291015626	-909.6192016601565	17.84493255615235	203.6134185791016	-875.4998779296877	24.70567893981934	229.7641296386719	-956.8086547851565	-12.26072311401368	148.6018981933594	-917.6958007812502	160.8478240966797	256.5563659667969	-944.7989501953127	164.641357421875	266.6147460937501	-901.4561157226565	154.8380889892578	235.4270019531251	-847.899353027344	-271.1334228515626	711.3542480468751	-1171.870361328125	
